<svg xmlns="http://www.w3.org/2000/svg" width="20" height="20" viewBox="0 0 20 20"><path d="M8.893.342a3.5 3.5 0 0 1 2.214 0l2.801.934-.316.948-2.801-.933a2.5 2.5 0 0 0-1.582 0l-2.8.933-.317-.948L8.893.342zm.405 2.137a2 2 0 0 1 1.404 0l1.474.553-.352.936-1.473-.552a1 1 0 0 0-.702 0l-1.473.552-.352-.936 1.474-.553zM5 6a1 1 0 0 1 1-1h8a1 1 0 0 1 1 1v11a1 1 0 0 1-1 1H6a1 1 0 0 1-1-1V6zm9 0H6v11h8V6zM7.75 9.25a2.25 2.25 0 1 1 4.5 0 2.25 2.25 0 0 1-4.5 0zM10 8a1.25 1.25 0 1 0 0 2.5A1.25 1.25 0 0 0 10 8zm-3 4.5h2v1H7v-1zm4 0h2v1h-2v-1zM9 16H7v-1h2v1zm4 0h-2v-1h2v1z"/></svg>