<svg xmlns="http://www.w3.org/2000/svg" width="20" height="20" viewBox="0 0 20 20"><path d="M14.292 1a1 1 0 0 1 .707.293L17.706 4a1 1 0 0 1 .293.707V9h-1V4.707L14.292 2H10V1h4.293zm-1.5 3a1 1 0 0 1 .707.293L14.706 5.5a1 1 0 0 1 .293.707V8h-1V6.207L12.792 5h-1.793V4h1.793zM10 8.293L5.757 4.05l-.353.354a6.5 6.5 0 0 0 1.29 10.194l-2.548 2.548.707.707L7 15.707V19L8 19v-3.293l2.146 2.146.707-.707-1.702-1.701a6.49 6.49 0 0 0 5.445-1.849l.354-.353L10.707 9l1.646-1.646-.707-.708L10 8.293zM5.773 5.48l7.747 7.747A5.5 5.5 0 0 1 5.773 5.48z"/></svg>