<svg xmlns="http://www.w3.org/2000/svg" width="24" height="24" viewBox="0 0 24 24"><path d="M3.299 3.042c-.215-.212-.49-.219-.68-.178-.188.041-.365.14-.517.25-.312.223-.643.584-.943 1.039C.555 5.069.023 6.447.049 8.108c.027 1.625.382 2.785.821 3.673a9.1 9.1 0 0 0 .666 1.119l.219.314c.09.13.172.245.245.356V21h3v-7.912l6.573 7.568a1 1 0 0 0 .755.344h7.887a1 1 0 0 0 .65-.241l1.536-1.317a1 1 0 0 0 .026-1.495l-3.231-2.974a1.04 1.04 0 0 0-.928-.244c-.43.096-1.409.271-2.768.271-.925 0-1.696-.142-2.353-.457-.652-.313-1.224-.81-1.731-1.57-1.103-1.655-4.526-6.54-8.117-9.931zM1.993 4.704c.255-.386.507-.646.692-.779l.054-.036c3.459 3.304 6.762 8.015 7.845 9.638.593.89 1.296 1.518 2.131 1.918.83.397 1.76.555 2.785.555 1.445 0 2.496-.186 2.984-.294a.06.06 0 0 1 .026 0c.004 0 .007.002.007.002l.002.001 3.23 2.974L20.215 20h-7.887l-6.573-7.568C5.148 11.734 4 12.163 4 13.088V20H3v-6.716l-.074-.121c-.108-.175-.242-.366-.376-.558-.064-.09-.127-.18-.188-.27a8.1 8.1 0 0 1-.595-.997c-.374-.756-.694-1.77-.717-3.246-.024-1.44.438-2.623.943-3.388z"/></svg>