<svg xmlns="http://www.w3.org/2000/svg" width="24" height="24" viewBox="0 0 24 24"><path d="M7.007 3.214c-3.832 4.137-4.705 10.38-.653 14.432 4.062 4.063 10.146 3.342 14.433-.652l-.793-.793c-4.039 3.761-9.454 4.307-12.86.64-3.367-3.627-2.675-9.182.667-12.833l-.794-.794zM8.51 4.715C7.34 6 6.547 7.513 6.173 9.07l5.543.594c.07-.42.27-.816.58-1.16L8.509 4.715zm4.495 4.496c-.222.263-.316.537-.316.789 0 .287.121.602.416.896.295.295.61.416.896.416.253 0 .526-.093.79-.316L13.004 9.21zm2.494 2.493a2.359 2.359 0 0 1-.97.54l.207 5.832c1.556-.394 3.124-1.258 4.552-2.583l-3.79-3.789zm-1.756 6.56l-.215-6.007a2.245 2.245 0 0 1-.744-.332l-4.577 4.577c1.525 1.437 3.49 2.015 5.536 1.761zm-6.215-2.497l4.549-4.55a2.297 2.297 0 0 1-.273-.539l-5.81-.622c-.253 2.038.223 4.08 1.534 5.71zM7.707 2.5L21.5 16.293a.987.987 0 0 1-.018 1.42c-4.56 4.26-11.28 5.195-15.835.64C1.093 13.8 2.202 6.918 6.287 2.52a.986.986 0 0 1 1.42-.02z"/><path d="M7.007 3.214c-3.832 4.137-4.705 10.38-.653 14.432 4.062 4.063 10.146 3.342 14.433-.652l-.793-.793c-4.039 3.761-9.454 4.307-12.86.64-3.367-3.627-2.675-9.182.667-12.833l-.794-.794zM8.51 4.715C7.34 6 6.547 7.513 6.173 9.07l5.543.594c.07-.42.27-.816.58-1.16L8.509 4.715zm4.495 4.496s-.797.832.1 1.685c.897.854 1.685.1 1.685.1L13.005 9.21zm2.494 2.493a2.359 2.359 0 0 1-.97.54l.207 5.832c1.556-.394 3.124-1.258 4.552-2.583l-3.79-3.789zm-1.756 6.56l-.215-6.007a2.245 2.245 0 0 1-.744-.332l-4.577 4.577c1.525 1.437 3.49 2.015 5.536 1.761zm-6.215-2.497l4.549-4.55a2.297 2.297 0 0 1-.273-.539l-5.81-.622c-.253 2.038.223 4.08 1.534 5.71zM7.707 2.5L21.5 16.293a.987.987 0 0 1-.018 1.42c-4.56 4.26-11.28 5.195-15.835.64C1.093 13.8 2.202 6.918 6.287 2.52a.986.986 0 0 1 1.42-.02z"/></svg>