<svg xmlns="http://www.w3.org/2000/svg" width="24" height="24" viewBox="0 0 24 24"><path d="M7.353 7.354C4.66 10.047 3.681 13.1 4.713 16.57c.192.641.054 1.37-.447 1.871a.79.79 0 0 0 0 1.118l.175.175a.79.79 0 0 0 1.118 0c.5-.501 1.23-.639 1.871-.448 3.47 1.033 6.522.054 9.216-2.64 2.692-2.692 3.671-5.742 2.642-9.209-.192-.645-.054-1.379.45-1.883a.802.802 0 0 0 .009-1.126l-.154-.158a.804.804 0 0 0-1.144-.01c-.508.506-1.244.641-1.89.447-3.463-1.044-6.513-.047-9.206 2.647zm-3.598 9.501c-1.154-3.878-.018-7.3 2.891-10.209 2.905-2.904 6.324-4.065 10.2-2.897.336.101.68.02.898-.197a1.804 1.804 0 0 1 2.566.021l.154.158a1.802 1.802 0 0 1-.018 2.53c-.218.217-.299.558-.2.891 1.151 3.875.015 7.294-2.893 10.202-2.909 2.909-6.33 4.045-10.208 2.89-.329-.097-.665-.017-.88.197-.699.7-1.832.7-2.531 0l-.175-.175c-.7-.7-.7-1.833 0-2.532.214-.214.294-.55.196-.879zm6.495.395c1.575 0 3.19-.912 4.11-2.062l.78.624c-1.08 1.35-2.966 2.438-4.89 2.438v-1z"/></svg>