<svg xmlns="http://www.w3.org/2000/svg" width="24" height="24" viewBox="0 0 24 24"><path d="M11.745 1a10.17 10.17 0 0 0-.935 1.543c-.326.67-.56 1.37-.56 1.957 0 .803.496 1.477 1.25 1.684V4.5h1v1.684c.755-.207 1.25-.88 1.25-1.684 0-.587-.233-1.287-.559-1.957A10.164 10.164 0 0 0 12.257 1h-.512zm-.788-.616A.97.97 0 0 1 11.735 0h.532a.97.97 0 0 1 .778.384c.273.364.692.995 1.046 1.722.348.717.66 1.58.66 2.394 0 1.498-1.147 2.75-2.75 2.75-1.604 0-2.75-1.252-2.75-2.75 0-.813.311-1.677.66-2.394A11.15 11.15 0 0 1 10.957.384zM7.94 8.848A1 1 0 0 1 8.929 8h6.143a1 1 0 0 1 .988.848l1.846 12A1 1 0 0 1 16.918 22H7.083a1 1 0 0 1-.988-1.152l1.846-12zM8.935 9L12 13.552 15.066 9H8.935zm6.36 1.45l-2.692 3.997 4.285 6.363-1.593-10.36zM15.81 21L12 15.342 8.19 21h7.62zm-8.698-.19l4.285-6.363-2.692-3.996L7.113 20.81z"/></svg>