<svg xmlns="http://www.w3.org/2000/svg" width="24" height="24" viewBox="0 0 24 24"><path d="M10.844.375a3.5 3.5 0 0 1 2.312 0l4.01 1.403-.331.944-4.01-1.403a2.5 2.5 0 0 0-1.65 0l-4.01 1.403-.33-.944L10.844.375zm.473 2.342a2 2 0 0 1 1.367 0l2.237.813-.342.94-2.237-.814a1 1 0 0 0-.684 0l-2.237.814-.342-.94 2.237-.813zM6 7a1 1 0 0 1 1-1h10a1 1 0 0 1 1 1v14a1 1 0 0 1-1 1H7a1 1 0 0 1-1-1V7zm11 0H7v14h10V7zm-8 4a3 3 0 1 1 6 0 3 3 0 0 1-6 0zm3-2a2 2 0 1 0 0 4 2 2 0 0 0 0-4zm-3.5 6.5H11v1H8.5v-1zm4.5 0h2.5v1H13v-1zM11 19H8.5v-1H11v1zm4.5 0H13v-1h2.5v1z"/></svg>