<svg xmlns="http://www.w3.org/2000/svg" width="24" height="24" viewBox="0 0 24 24"><g clip-path="url(#clip0_6363_925)"><path d="M11.5 4V0h1v4h1V2.02L15.425.37l.65.76L14.5 2.48V4a6.5 6.5 0 0 1 6.5 6.5v4a6.5 6.5 0 0 1-6.5 6.5h-.476l-1.184 1.862a1 1 0 0 1-1.683.007l-1.18-1.82-.525-.005A6.5 6.5 0 0 1 3 14.544V10.5A6.5 6.5 0 0 1 9.5 4V2.48L7.925 1.13l.65-.76L10.5 2.02V4h1zm-7.478 6H6.5v1H4v1.5h3v1H4l.019 1.5H7.5v1H4.195a5.502 5.502 0 0 0 5.264 4.044l.525.004a1 1 0 0 1 .832.456l1.18 1.82 1.185-1.86a1 1 0 0 1 .844-.464h.475a5.5 5.5 0 0 0 5.5-5.5v-4A5.5 5.5 0 0 0 14.5 5h-5a5.5 5.5 0 0 0-5.478 5z"/></g><defs><clipPath id="clip0_6363_925"><path d="M0 0h24v24H0z"/></clipPath></defs></svg>